<?xml version="1.0" encoding="utf-8"?>
<svg viewBox="0 0 500 500" xmlns="http://www.w3.org/2000/svg">
  <g transform="matrix(0.129061, 0, 0, -0.114468, -84.591515, 531.772461)" fill="#000000" stroke="none" style="">
    <path d="M2543 4560 c-296 -786 -403 -1075 -403 -1081 0 -4 45 -9 100 -11 l99 -3 47 130 c26 72 50 134 54 138 4 4 115 -286 248 -645 l241 -653 -300 -3 -299 -2 0 -110 0 -110 337 -2 336 -3 284 -765 c155 -421 287 -789 293 -819 20 -109 -19 -169 -117 -180 -56 -6 -58 -7 -58 -36 l0 -30 468 -3 468 -2 -3 32 c-3 32 -4 33 -61 39 -95 10 -150 59 -227 201 -21 40 -359 934 -756 2003 -394 1062 -719 1939 -724 1950 -6 16 -11 9 -27 -35z" style="fill: rgb(243, 244, 246);"/>
    <path d="M1848 3587 c-105 -63 -248 -311 -374 -644 -49 -131 -72 -177 -75 -145 0 4 -2 81 -5 172 -3 91 -9 207 -13 259 -7 81 -12 98 -31 113 -30 25 -62 19 -77 -12 -8 -18 -15 -201 -24 -630 l-12 -604 -48 -59 c-63 -78 -87 -131 -99 -218 -30 -211 100 -450 273 -501 102 -30 267 -5 373 57 138 81 270 332 295 560 15 138 -7 284 -62 412 -11 25 -18 48 -15 50 2 2 73 22 157 44 155 39 177 48 165 68 -15 24 -140 3 -338 -56 -12 -4 -33 12 -68 50 -47 51 -151 117 -185 117 -7 0 -18 6 -24 14 -9 11 -2 25 34 67 224 263 409 701 355 843 -24 63 -132 86 -202 43z m89 -106 c-9 -81 -47 -182 -134 -354 -145 -283 -375 -602 -347 -479 20 85 128 372 197 522 83 180 222 370 271 370 17 0 18 -6 13 -59z m-267 -911 c27 0 84 -52 114 -105 14 -24 26 -47 26 -52 0 -4 -37 -21 -82 -37 -45 -16 -137 -57 -206 -92 -69 -36 -126 -63 -128 -61 -7 7 17 247 29 292 l13 49 87 1 c48 1 90 5 94 9 4 3 13 4 21 1 7 -3 22 -5 32 -5z m177 -245 c8 -22 21 -103 30 -180 15 -128 15 -147 0 -231 -48 -266 -161 -479 -285 -532 -75 -32 -115 -36 -172 -17 -108 36 -206 164 -236 307 -19 93 -11 168 26 245 l28 58 1 -71 c1 -83 11 -97 67 -92 64 5 75 32 81 195 l6 140 76 51 c108 72 319 173 350 169 8 -1 20 -20 28 -42z" style="fill: rgb(56, 189, 248);"/>
    <path d="M1299 1243 c-6 -16 -53 -140 -105 -277 -108 -286 -148 -367 -218 -444 -54 -58 -96 -82 -146 -82 -28 0 -30 -3 -30 -35 l0 -35 351 0 350 0 -3 33 c-3 30 -6 32 -45 38 -76 10 -123 75 -123 169 0 39 23 115 104 338 57 158 107 295 111 305 7 16 -3 17 -114 17 l-121 0 -11 -27z" style="fill: rgb(243, 244, 246); paint-order: fill;"/>
  </g>
</svg>